<?xml version="1.0" encoding="UTF-8"?>
<svg width="400" height="250" xmlns="http://www.w3.org/2000/svg">
  <defs>
    <linearGradient id="headerGrad" x1="0%" y1="0%" x2="0%" y2="100%">
      <stop offset="0%" style="stop-color:#0f766e;stop-opacity:1" />
      <stop offset="100%" style="stop-color:#0ea5e9;stop-opacity:1" />
    </linearGradient>
  </defs>
  <rect width="400" height="250" fill="url(#headerGrad)" />
  
  <!-- Modern Tech Building -->
  <polygon points="100,130 300,130 250,60 150,60" fill="#f8fafc" />
  <rect x="120" y="130" width="160" height="80" fill="#f8fafc" />
  
  <!-- Windows and Details -->
  <rect x="140" y="80" width="20" height="20" fill="#0ea5e9" />
  <rect x="170" y="80" width="20" height="20" fill="#0ea5e9" />
  <rect x="200" y="80" width="20" height="20" fill="#0ea5e9" />
  <rect x="230" y="80" width="20" height="20" fill="#0ea5e9" />
  
  <rect x="140" y="150" width="30" height="40" fill="#e2e8f0" />
  <rect x="185" y="150" width="30" height="40" fill="#e2e8f0" />
  <rect x="230" y="150" width="30" height="40" fill="#e2e8f0" />
  
  <!-- Tech Elements -->
  <circle cx="200" cy="40" r="20" fill="#0ea5e9" />
  <rect x="195" y="30" width="10" height="20" fill="#f8fafc" />
  <rect x="190" y="35" width="20" height="10" fill="#f8fafc" />
  
  <text x="200" y="220" font-family="Arial" font-size="18" fill="white" text-anchor="middle" font-weight="bold">
    NIT Srinagar
  </text>
  <text x="200" y="240" font-family="Arial" font-size="12" fill="white" text-anchor="middle">
    Engineering Institute
  </text>
</svg>